# This file uses centimeters as units for non-parametric coordinates.

mtllib SM_Icon_Clothes_Glasses_01.mtl
g default
v 19.061134 4.583855 0.000000
v 19.179865 -0.817373 0.000000
v 15.456520 -6.207052 0.000000
v 12.008933 -5.793454 0.000000
v 7.860634 -2.636531 0.000000
v 7.906452 -4.680838 0.000000
v 7.093142 -7.614628 0.000000
v 3.421191 -10.090178 0.000000
v -0.587968 -10.403256 0.000000
v -18.569946 1.394633 0.000000
v -17.122599 3.634979 0.000000
v -18.044044 -1.792052 0.000000
v -15.858847 -2.786084 0.000000
v -15.063416 0.943497 0.000000
v 18.642794 -3.986897 0.000000
v -14.828760 4.244406 0.000000
v -12.799627 3.918957 0.000000
v -3.428228 -0.670762 0.000000
v 10.060361 3.191276 0.000000
v 3.197186 5.396544 0.000000
v 0.757652 2.743707 0.000000
v -0.670206 5.254412 0.000000
v 0.939951 7.570171 0.000000
v 3.382744 8.236011 0.000000
v -15.930845 0.087818 0.000000
v 2.339380 4.930783 0.000000
v 2.631972 3.609467 0.000000
v 8.933313 -2.154171 0.000000
v 9.705832 -4.705732 0.000000
v 8.998851 -2.601903 0.000000
v -4.398627 -6.760413 0.000000
v -2.958088 -8.963825 0.000000
v 16.447075 5.298728 0.000000
v -3.999179 -1.435864 -2.000000
v -4.005795 -6.378263 -2.000000
v 18.392178 3.885042 -4.000000
v 11.301728 3.241228 -2.000000
v 15.448594 4.440059 -2.000000
v 2.992328 7.337034 -2.000000
v 2.883014 5.844832 -2.000000
v 1.250313 7.119077 -2.000000
v 1.557446 5.279072 -2.000000
v -0.123692 5.223847 -2.000000
v 0.998545 3.235165 -2.000000
v 2.067766 4.054131 -2.000000
v -16.771185 0.562568 -2.000000
v -16.351192 -2.020687 -2.000000
v -15.314376 1.426819 -2.000000
v -1.701292 -8.254627 -4.000000
v -14.215751 3.358454 -2.000000
v -16.788824 3.201048 -2.000000
v -17.609253 -1.459471 -2.000000
v -18.034479 1.280359 -2.000000
v -3.049292 -2.016318 -4.000000
v -3.055559 -6.176905 -4.000000
v 7.766953 -2.326581 -4.000000
v 3.810030 -9.203515 -4.000000
v 0.303177 -9.485683 -4.000000
v 7.037397 -7.046451 -4.000000
v 7.715840 -4.496094 -4.000000
v 10.379026 -1.442990 -4.000000
v 18.392178 -0.868879 -4.000000
v 17.961388 -3.636083 -4.000000
v 15.259195 -5.510910 -4.000000
v 10.393085 -2.723518 -4.000000
v 12.257936 -5.123845 -4.000000
v 10.901822 -4.368958 -4.000000
v -3.999179 -1.435864 2.000000
v -4.005795 -6.378263 2.000000
v 18.392178 3.885042 4.000000
v 11.301728 3.241228 2.000000
v 15.448594 4.440059 2.000000
v 2.992328 7.337034 2.000000
v 2.883014 5.844832 2.000000
v 1.250313 7.119077 2.000000
v 1.557446 5.279072 2.000000
v -0.123692 5.223847 2.000000
v 0.998545 3.235165 2.000000
v 2.067766 4.054131 2.000000
v -16.771185 0.562568 2.000000
v -16.351192 -2.020687 2.000000
v -15.314376 1.426819 2.000000
v -1.701292 -8.254627 4.000000
v -14.215751 3.358454 2.000000
v -16.788824 3.201048 2.000000
v -17.609253 -1.459471 2.000000
v -18.034479 1.280359 2.000000
v -3.049292 -2.016318 4.000000
v -3.055559 -6.176905 4.000000
v 7.766953 -2.326581 4.000000
v 3.810030 -9.203515 4.000000
v 0.303177 -9.485683 4.000000
v 7.037397 -7.046451 4.000000
v 7.715840 -4.496094 4.000000
v 10.379026 -1.442990 4.000000
v 18.392178 -0.868879 4.000000
v 17.961388 -3.636083 4.000000
v 15.259195 -5.510910 4.000000
v 10.393085 -2.723518 4.000000
v 12.257936 -5.123845 4.000000
v 10.901822 -4.368958 4.000000
vt 0.454323 0.980180
vt 0.453344 0.979952
vt 0.454276 0.980470
vt 0.454138 0.980544
vt 0.453976 0.980531
vt 0.453826 0.980432
vt 0.453794 0.980313
vt 0.453791 0.980213
vt 0.453694 0.980180
vt 0.453670 0.980172
vt 0.989611 0.895886
vt 0.989697 0.895840
vt 0.989730 0.895893
vt 0.989718 0.895967
vt 0.989684 0.895982
vt 0.989688 0.895923
vt 0.989656 0.895889
vt 0.989349 0.896101
vt 0.451880 0.951211
vt 0.453619 0.980300
vt 0.988844 0.895674
vt 0.988865 0.895515
vt 0.989150 0.895785
vt 0.989154 0.895764
vt 0.989206 0.895733
vt 0.989244 0.895785
vt 0.989213 0.895839
vt 0.989183 0.895820
vt 0.989195 0.895793
vt 0.989161 0.895768
vt 0.988931 0.895839
vt 0.451882 0.951205
vt 0.989172 0.895849
vt 0.983675 0.863568
vt 0.983625 0.863534
vt 0.453582 0.980343
vt 0.453443 0.980361
vt 0.453316 0.980274
vt 0.983626 0.863393
vt 0.453295 0.980145
vt 0.451882 0.951441
vt 0.451882 0.951441
vt 0.451820 0.951181
vt 0.451269 0.951216
vt 0.451272 0.951260
vt 0.451247 0.951342
vt 0.989445 0.895781
vt 0.451158 0.951383
vt 0.451244 0.951269
vt 0.451245 0.951208
vt 0.451816 0.951543
vt 0.451719 0.951601
vt 0.450882 0.950957
vt 0.451013 0.950947
vt 0.451196 0.950999
vt 0.450980 0.950933
vt 0.983697 0.863435
vt 0.982743 0.863255
vt 0.982706 0.863248
vt 0.982700 0.863164
vt 0.982766 0.863192
vt 0.982795 0.863297
vt 0.982738 0.863288
vt 0.989571 0.895562
vt 0.989626 0.895879
vt 0.989619 0.895936
vt 0.989568 0.896012
vt 0.453342 0.979955
vt 0.989161 0.895768
vt 0.988926 0.895840
vt 0.989189 0.895791
vt 0.989244 0.895785
vt 0.989213 0.895839
vt 0.983675 0.863568
vt 0.983626 0.863393
vt 0.982700 0.863164
vt 0.982795 0.863297
vt 0.451882 0.951441
vt 0.451814 0.951543
vt 0.451192 0.950998
vt 0.989632 0.895926
vt 0.989656 0.895889
vt 0.989349 0.896101
vt 0.989718 0.895967
vt 0.989684 0.895982
vt 0.989730 0.895893
vt 0.450885 0.950956
vt 0.454140 0.980457
vt 0.453976 0.980531
vt 0.453826 0.980432
vt 0.453794 0.980313
vt 0.453791 0.980213
vt 0.453295 0.980145
vt 0.453316 0.980274
vt 0.453443 0.980361
vt 0.453604 0.980282
vt 0.453563 0.980297
vt 0.451719 0.951601
vt 0.454184 0.980473
vt 0.451247 0.951342
vt 0.451158 0.951383
vt 0.453342 0.979955
vt 0.454323 0.980180
vt 0.453791 0.980213
vt 0.453670 0.980172
vt 0.454140 0.980457
vt 0.453976 0.980531
vt 0.454276 0.980470
vt 0.453826 0.980432
vt 0.453794 0.980313
vt 0.453295 0.980145
vt 0.453316 0.980274
vt 0.453443 0.980361
vt 0.453619 0.980300
vt 0.453604 0.980282
vt 0.988926 0.895840
vt 0.988844 0.895674
vt 0.989154 0.895764
vt 0.989161 0.895768
vt 0.989189 0.895791
vt 0.989195 0.895793
vt 0.989244 0.895785
vt 0.989213 0.895839
vt 0.989183 0.895820
vt 0.453563 0.980297
vt 0.454184 0.980473
vt 0.450885 0.950956
vt 0.451013 0.950947
vt 0.451880 0.951211
vt 0.451192 0.950998
vt 0.451882 0.951205
vt 0.989656 0.895889
vt 0.989349 0.896101
vt 0.989445 0.895781
vt 0.989611 0.895886
vt 0.989632 0.895926
vt 0.989718 0.895967
vt 0.989684 0.895982
vt 0.989688 0.895923
vt 0.989730 0.895893
vt 0.454138 0.980544
vt 0.453976 0.980531
vt 0.453826 0.980432
vt 0.453794 0.980313
vt 0.453791 0.980213
vt 0.453694 0.980180
vt 0.453295 0.980145
vt 0.453344 0.979952
vt 0.453316 0.980274
vt 0.453443 0.980361
vt 0.453582 0.980343
vt 0.989161 0.895768
vt 0.988931 0.895839
vt 0.989206 0.895733
vt 0.989244 0.895785
vt 0.989213 0.895839
vt 0.989150 0.895785
vt 0.989172 0.895849
vt 0.988865 0.895515
vt 0.983675 0.863568
vt 0.983625 0.863534
vt 0.983697 0.863435
vt 0.983675 0.863568
vt 0.983626 0.863393
vt 0.983626 0.863393
vt 0.982706 0.863248
vt 0.982700 0.863164
vt 0.982700 0.863164
vt 0.982766 0.863192
vt 0.982795 0.863297
vt 0.982738 0.863288
vt 0.982743 0.863255
vt 0.982795 0.863297
vt 0.451247 0.951342
vt 0.451158 0.951383
vt 0.451158 0.951383
vt 0.451247 0.951342
vt 0.451272 0.951260
vt 0.451244 0.951269
vt 0.451269 0.951216
vt 0.451245 0.951208
vt 0.451882 0.951441
vt 0.451816 0.951543
vt 0.451814 0.951543
vt 0.451882 0.951441
vt 0.451719 0.951601
vt 0.451719 0.951601
vt 0.451196 0.950999
vt 0.451820 0.951181
vt 0.989619 0.895936
vt 0.989568 0.896012
vt 0.989571 0.895562
vt 0.989626 0.895879
vt 0.989656 0.895889
vt 0.989349 0.896101
vt 0.989718 0.895967
vt 0.989684 0.895982
vt 0.989730 0.895893
vt 0.989697 0.895840
vt 0.450882 0.950957
vt 0.450980 0.950933
vt 0.451882 0.951441
vn 0.000000 0.000000 -1.000000
vn 0.000000 0.000000 -1.000000
vn 0.000000 0.000000 -1.000000
vn 0.000000 0.000000 -1.000000
vn 0.000000 0.000000 -1.000000
vn 0.000000 0.000000 -1.000000
vn 0.000000 0.000000 -1.000000
vn -0.000000 0.000000 -1.000000
vn -0.000000 0.000000 -1.000000
vn -0.000000 0.000000 -1.000000
vn -0.000000 0.000000 -1.000000
vn 0.000000 0.000000 -1.000000
vn 0.000000 0.000000 -1.000000
vn 0.000000 0.000000 -1.000000
vn 0.000000 0.000000 -1.000000
vn 0.000000 0.000000 -1.000000
vn 0.000000 0.000000 -1.000000
vn 0.000000 0.000000 -1.000000
vn 0.000000 0.000000 -1.000000
vn 0.000000 0.000000 -1.000000
vn 0.000000 0.000000 -1.000000
vn 0.000000 0.000000 -1.000000
vn 0.000000 0.000000 -1.000000
vn 0.000000 0.000000 -1.000000
vn 0.000000 0.000000 -1.000000
vn 0.000000 0.000000 -1.000000
vn 0.000000 0.000000 -1.000000
vn 0.000000 0.000000 -1.000000
vn 0.000000 0.000000 -1.000000
vn 0.000000 0.000000 -1.000000
vn 0.000000 0.000000 -1.000000
vn 0.000000 0.000000 -1.000000
vn 0.000000 0.000000 -1.000000
vn 0.000000 0.000000 -1.000000
vn 0.000000 0.000000 -1.000000
vn 0.000000 0.000000 -1.000000
vn 0.000000 0.000000 -1.000000
vn 0.000000 0.000000 -1.000000
vn 0.000000 0.000000 -1.000000
vn 0.000000 0.000000 -1.000000
vn -0.000001 0.000000 -1.000000
vn -0.000001 0.000000 -1.000000
vn -0.000001 0.000000 -1.000000
vn 0.000001 0.000000 -1.000000
vn 0.000001 0.000000 -1.000000
vn 0.000001 0.000000 -1.000000
vn -0.221666 0.805383 -0.549748
vn -0.221666 0.805383 -0.549748
vn -0.221666 0.805383 -0.549748
vn -0.264627 0.875846 -0.403567
vn -0.264627 0.875846 -0.403567
vn -0.264627 0.875846 -0.403567
vn -0.264627 0.875846 -0.403567
vn 0.000000 0.000000 -1.000000
vn 0.000000 0.000000 -1.000000
vn 0.000000 0.000000 -1.000000
vn 0.000000 0.000000 -1.000000
vn -0.000000 0.000000 -1.000000
vn -0.000000 0.000000 -1.000000
vn -0.000000 0.000000 -1.000000
vn -0.000000 0.000000 -1.000000
vn -0.000000 0.000000 -1.000000
vn -0.000000 0.000000 -1.000000
vn -0.000000 0.000000 -1.000000
vn 0.000000 0.000000 -1.000000
vn 0.000000 0.000000 -1.000000
vn 0.000000 0.000000 -1.000000
vn 0.000000 0.000000 -1.000000
vn 0.077230 -0.975166 -0.207572
vn 0.077230 -0.975166 -0.207572
vn 0.077230 -0.975166 -0.207572
vn 0.077230 -0.975166 -0.207572
vn 0.552957 -0.823515 -0.126737
vn 0.552957 -0.823515 -0.126737
vn 0.552957 -0.823515 -0.126737
vn 0.552957 -0.823515 -0.126737
vn 0.963513 -0.262087 -0.054337
vn 0.963513 -0.262087 -0.054337
vn 0.963513 -0.262087 -0.054337
vn 0.963513 -0.262087 -0.054337
vn 0.999366 -0.001256 -0.035592
vn 0.999366 -0.001256 -0.035592
vn 0.999366 -0.001256 -0.035592
vn 0.999366 -0.001256 -0.035592
vn 0.346946 -0.935911 -0.060826
vn 0.346946 -0.935911 -0.060826
vn 0.346946 -0.935911 -0.060826
vn 0.346946 -0.935911 -0.060826
vn 0.983569 0.011500 -0.180167
vn 0.983569 0.011500 -0.180167
vn 0.983569 0.011500 -0.180167
vn 0.983569 0.011500 -0.180167
vn 0.970107 -0.158157 -0.184064
vn 0.970107 -0.158157 -0.184064
vn 0.970107 -0.158157 -0.184064
vn 0.970107 -0.158157 -0.184064
vn 0.562849 -0.809360 -0.167745
vn 0.562849 -0.809360 -0.167745
vn 0.562849 -0.809360 -0.167745
vn 0.562849 -0.809360 -0.167745
vn -0.121463 -0.978310 -0.167800
vn -0.121463 -0.978310 -0.167800
vn -0.121463 -0.978310 -0.167800
vn -0.121463 -0.978310 -0.167801
vn -0.294978 -0.937396 -0.185138
vn -0.294978 -0.937396 -0.185138
vn -0.294978 -0.937396 -0.185138
vn -0.294978 -0.937396 -0.185138
vn -0.792570 0.561663 -0.237416
vn -0.792570 0.561663 -0.237416
vn -0.792570 0.561663 -0.237416
vn -0.792570 0.561663 -0.237416
vn -0.848205 -0.480733 -0.222362
vn -0.848205 -0.480733 -0.222362
vn -0.848205 -0.480733 -0.222362
vn -0.848205 -0.480733 -0.222362
vn -0.196452 0.930209 -0.310030
vn -0.196452 0.930209 -0.310030
vn -0.196452 0.930208 -0.310030
vn -0.196452 0.930209 -0.310030
vn 0.198873 0.869925 -0.451309
vn 0.198873 0.869925 -0.451309
vn 0.198873 0.869925 -0.451309
vn 0.198873 0.869925 -0.451309
vn 0.952905 0.085910 -0.290846
vn 0.952905 0.085910 -0.290846
vn 0.952905 0.085910 -0.290846
vn 0.952905 0.085910 -0.290846
vn 0.560598 -0.757567 -0.334397
vn 0.560598 -0.757567 -0.334397
vn 0.560598 -0.757568 -0.334397
vn 0.560598 -0.757567 -0.334397
vn 0.409478 -0.866724 -0.284811
vn 0.409478 -0.866724 -0.284811
vn 0.409478 -0.866724 -0.284811
vn 0.409478 -0.866724 -0.284811
vn 0.482663 -0.843306 -0.236372
vn 0.482663 -0.843306 -0.236372
vn 0.482663 -0.843306 -0.236372
vn 0.482663 -0.843306 -0.236372
vn 0.922719 0.290961 -0.252847
vn 0.922719 0.290961 -0.252847
vn 0.922719 0.290961 -0.252847
vn 0.922719 0.290961 -0.252847
vn -0.441553 -0.876873 -0.190064
vn -0.441553 -0.876873 -0.190064
vn -0.441553 -0.876873 -0.190064
vn -0.441553 -0.876874 -0.190064
vn -0.906959 -0.294085 -0.301563
vn -0.906959 -0.294085 -0.301563
vn -0.906959 -0.294085 -0.301563
vn -0.906959 -0.294085 -0.301563
vn -0.940487 -0.043315 -0.337059
vn -0.940487 -0.043315 -0.337059
vn -0.940487 -0.043315 -0.337059
vn -0.940487 -0.043315 -0.337059
vn -0.771137 -0.554490 -0.312872
vn -0.771137 -0.554490 -0.312872
vn -0.771137 -0.554490 -0.312872
vn -0.771137 -0.554490 -0.312872
vn -0.497188 -0.814456 -0.299108
vn -0.497188 -0.814456 -0.299108
vn -0.497188 -0.814456 -0.299108
vn -0.497188 -0.814456 -0.299108
vn -0.277774 0.936509 -0.213992
vn -0.277774 0.936509 -0.213992
vn -0.277774 0.936509 -0.213992
vn -0.277774 0.936509 -0.213992
vn -0.146310 0.928593 -0.341040
vn -0.146310 0.928593 -0.341040
vn -0.146310 0.928593 -0.341040
vn -0.146310 0.928593 -0.341040
vn 0.384339 0.802259 -0.456798
vn 0.384339 0.802259 -0.456798
vn 0.384339 0.802259 -0.456797
vn 0.384339 0.802259 -0.456797
vn 0.147598 0.920257 -0.362412
vn 0.147598 0.920257 -0.362412
vn 0.147598 0.920257 -0.362412
vn -0.565745 -0.801556 -0.193497
vn -0.565745 -0.801556 -0.193497
vn -0.565745 -0.801556 -0.193497
vn -0.565745 -0.801556 -0.193497
vn -0.399883 -0.885325 -0.237263
vn -0.399883 -0.885325 -0.237263
vn -0.399883 -0.885325 -0.237263
vn -0.399883 -0.885325 -0.237263
vn -0.958301 -0.153795 -0.240844
vn -0.958301 -0.153794 -0.240844
vn -0.958301 -0.153795 -0.240844
vn -0.958301 -0.153795 -0.240844
vn -0.813115 0.526244 -0.248821
vn -0.813115 0.526244 -0.248821
vn -0.813115 0.526244 -0.248821
vn -0.813115 0.526244 -0.248821
vn 0.117013 0.952881 -0.279868
vn 0.117013 0.952881 -0.279868
vn 0.117013 0.952881 -0.279868
vn 0.117013 0.952881 -0.279868
vn -0.903219 0.001278 -0.429178
vn -0.903219 0.001278 -0.429178
vn -0.903219 0.001278 -0.429178
vn -0.903219 0.001278 -0.429178
vn -0.763103 -0.497393 -0.412642
vn -0.763103 -0.497393 -0.412642
vn -0.763103 -0.497393 -0.412642
vn 0.000000 0.000000 -1.000000
vn 0.000000 0.000000 -1.000000
vn 0.000000 0.000000 -1.000000
vn 0.000000 0.000000 1.000000
vn 0.000000 0.000000 1.000000
vn 0.000000 0.000000 1.000000
vn 0.000000 0.000000 1.000000
vn 0.000000 0.000000 1.000000
vn 0.000000 0.000000 1.000000
vn 0.000000 0.000000 1.000000
vn -0.000000 0.000000 1.000000
vn -0.000000 0.000000 1.000000
vn -0.000000 0.000000 1.000000
vn -0.000000 0.000000 1.000000
vn 0.000000 0.000000 1.000000
vn 0.000000 0.000000 1.000000
vn 0.000000 0.000000 1.000000
vn 0.000000 0.000000 1.000000
vn 0.000000 0.000000 1.000000
vn 0.000000 0.000000 1.000000
vn 0.000000 0.000000 1.000000
vn 0.000000 0.000000 1.000000
vn 0.000000 0.000000 1.000000
vn 0.000000 0.000000 1.000000
vn 0.000000 0.000000 1.000000
vn 0.000000 0.000000 1.000000
vn 0.000000 0.000000 1.000000
vn 0.000000 0.000000 1.000000
vn 0.000000 0.000000 1.000000
vn 0.000000 0.000000 1.000000
vn 0.000000 0.000000 1.000000
vn 0.000000 0.000000 1.000000
vn 0.000000 0.000000 1.000000
vn 0.000000 0.000000 1.000000
vn 0.000000 0.000000 1.000000
vn 0.000000 0.000000 1.000000
vn 0.000000 0.000000 1.000000
vn 0.000000 0.000000 1.000000
vn 0.000000 0.000000 1.000000
vn 0.000000 0.000000 1.000000
vn 0.000000 0.000000 1.000000
vn 0.000000 0.000000 1.000000
vn 0.000000 0.000000 1.000000
vn -0.000001 0.000000 1.000000
vn -0.000001 0.000000 1.000000
vn -0.000001 0.000000 1.000000
vn 0.000000 0.000000 1.000000
vn 0.000000 0.000000 1.000000
vn 0.000000 0.000000 1.000000
vn -0.221666 0.805383 0.549748
vn -0.221666 0.805383 0.549748
vn -0.221666 0.805383 0.549748
vn -0.264627 0.875846 0.403567
vn -0.264627 0.875846 0.403567
vn -0.264627 0.875846 0.403567
vn -0.264627 0.875846 0.403567
vn -0.000000 0.000000 1.000000
vn -0.000000 0.000000 1.000000
vn -0.000000 0.000000 1.000000
vn -0.000000 0.000000 1.000000
vn 0.000000 0.000000 1.000000
vn 0.000000 0.000000 1.000000
vn 0.000000 0.000000 1.000000
vn -0.000000 0.000000 1.000000
vn -0.000000 0.000000 1.000000
vn -0.000000 0.000000 1.000000
vn -0.000000 0.000000 1.000000
vn 0.000000 0.000000 1.000000
vn 0.000000 0.000000 1.000000
vn 0.000000 0.000000 1.000000
vn 0.000000 0.000000 1.000000
vn 0.077230 -0.975166 0.207572
vn 0.077230 -0.975166 0.207572
vn 0.077230 -0.975166 0.207572
vn 0.077230 -0.975166 0.207572
vn 0.552957 -0.823515 0.126737
vn 0.552957 -0.823515 0.126737
vn 0.552957 -0.823515 0.126737
vn 0.552957 -0.823515 0.126737
vn 0.963513 -0.262087 0.054337
vn 0.963513 -0.262087 0.054337
vn 0.963513 -0.262087 0.054337
vn 0.963513 -0.262087 0.054337
vn 0.999366 -0.001256 0.035592
vn 0.999366 -0.001256 0.035592
vn 0.999366 -0.001256 0.035592
vn 0.999366 -0.001256 0.035592
vn 0.346946 -0.935911 0.060826
vn 0.346946 -0.935911 0.060826
vn 0.346946 -0.935911 0.060826
vn 0.346946 -0.935911 0.060826
vn 0.983569 0.011500 0.180167
vn 0.983569 0.011500 0.180167
vn 0.983569 0.011500 0.180167
vn 0.983569 0.011500 0.180167
vn 0.970107 -0.158157 0.184064
vn 0.970107 -0.158157 0.184064
vn 0.970107 -0.158157 0.184064
vn 0.970107 -0.158157 0.184064
vn 0.562849 -0.809360 0.167745
vn 0.562849 -0.809360 0.167745
vn 0.562849 -0.809360 0.167745
vn 0.562849 -0.809360 0.167745
vn -0.121463 -0.978310 0.167800
vn -0.121463 -0.978310 0.167801
vn -0.121463 -0.978310 0.167800
vn -0.121463 -0.978310 0.167800
vn -0.294978 -0.937396 0.185137
vn -0.294978 -0.937396 0.185137
vn -0.294978 -0.937397 0.185137
vn -0.294978 -0.937397 0.185137
vn -0.792570 0.561663 0.237416
vn -0.792570 0.561663 0.237416
vn -0.792570 0.561663 0.237416
vn -0.792570 0.561663 0.237416
vn -0.848205 -0.480733 0.222362
vn -0.848205 -0.480733 0.222362
vn -0.848205 -0.480733 0.222362
vn -0.848205 -0.480733 0.222362
vn -0.196452 0.930209 0.310030
vn -0.196452 0.930209 0.310030
vn -0.196452 0.930208 0.310030
vn -0.196452 0.930209 0.310030
vn 0.198873 0.869925 0.451309
vn 0.198873 0.869925 0.451309
vn 0.198873 0.869925 0.451309
vn 0.198873 0.869925 0.451309
vn 0.952905 0.085910 0.290846
vn 0.952905 0.085910 0.290846
vn 0.952905 0.085910 0.290846
vn 0.952905 0.085910 0.290846
vn 0.560598 -0.757568 0.334396
vn 0.560598 -0.757568 0.334396
vn 0.560598 -0.757568 0.334396
vn 0.560598 -0.757568 0.334396
vn 0.409478 -0.866724 0.284811
vn 0.409478 -0.866724 0.284811
vn 0.409478 -0.866724 0.284811
vn 0.409478 -0.866724 0.284811
vn 0.482663 -0.843306 0.236372
vn 0.482663 -0.843306 0.236372
vn 0.482663 -0.843306 0.236372
vn 0.482663 -0.843306 0.236372
vn 0.922719 0.290961 0.252847
vn 0.922719 0.290961 0.252847
vn 0.922719 0.290961 0.252847
vn 0.922719 0.290961 0.252847
vn -0.441553 -0.876873 0.190064
vn -0.441553 -0.876874 0.190064
vn -0.441553 -0.876873 0.190064
vn -0.441553 -0.876873 0.190064
vn -0.906959 -0.294085 0.301563
vn -0.906959 -0.294085 0.301563
vn -0.906959 -0.294085 0.301563
vn -0.906959 -0.294085 0.301563
vn -0.940487 -0.043315 0.337059
vn -0.940487 -0.043315 0.337059
vn -0.940487 -0.043315 0.337059
vn -0.940487 -0.043315 0.337059
vn -0.771137 -0.554490 0.312871
vn -0.771137 -0.554490 0.312871
vn -0.771137 -0.554490 0.312871
vn -0.771137 -0.554490 0.312871
vn -0.497188 -0.814456 0.299108
vn -0.497188 -0.814456 0.299108
vn -0.497188 -0.814456 0.299108
vn -0.497188 -0.814456 0.299108
vn -0.277774 0.936509 0.213992
vn -0.277774 0.936509 0.213992
vn -0.277774 0.936509 0.213992
vn -0.277774 0.936509 0.213992
vn -0.146310 0.928593 0.341040
vn -0.146310 0.928593 0.341040
vn -0.146310 0.928593 0.341040
vn -0.146310 0.928593 0.341040
vn 0.384339 0.802259 0.456797
vn 0.384339 0.802259 0.456797
vn 0.384339 0.802259 0.456797
vn 0.384339 0.802259 0.456797
vn 0.147598 0.920257 0.362412
vn 0.147598 0.920257 0.362412
vn 0.147598 0.920257 0.362412
vn -0.565745 -0.801556 0.193497
vn -0.565745 -0.801556 0.193497
vn -0.565745 -0.801556 0.193497
vn -0.565745 -0.801556 0.193497
vn -0.399883 -0.885325 0.237263
vn -0.399883 -0.885325 0.237263
vn -0.399883 -0.885325 0.237263
vn -0.399883 -0.885325 0.237263
vn -0.958301 -0.153794 0.240844
vn -0.958301 -0.153795 0.240844
vn -0.958301 -0.153794 0.240844
vn -0.958301 -0.153794 0.240844
vn -0.813115 0.526244 0.248821
vn -0.813115 0.526244 0.248821
vn -0.813115 0.526244 0.248821
vn -0.813115 0.526244 0.248821
vn 0.117013 0.952881 0.279868
vn 0.117013 0.952881 0.279868
vn 0.117013 0.952881 0.279868
vn 0.117013 0.952881 0.279868
vn -0.903219 0.001278 0.429178
vn -0.903219 0.001278 0.429178
vn -0.903219 0.001278 0.429178
vn -0.903219 0.001278 0.429178
vn -0.763103 -0.497393 0.412642
vn -0.763103 -0.497393 0.412642
vn -0.763103 -0.497393 0.412642
vn 0.000000 0.000000 1.000000
vn 0.000000 0.000000 1.000000
vn 0.000000 0.000000 1.000000
s off
g SM_Icon_Clothes_Glasses_01
usemtl SM_Icon_Clothes_Glasses_01SG
f 36/68/1 61/10/2 56/92/3 54/1/4
f 58/88/5 55/3/6 57/89/7
f 55/3/8 60/91/9 59/90/10 57/89/11
f 60/91/12 55/3/13 56/92/14
f 62/93/15 63/94/16 61/10/17 36/68/18
f 64/95/19 65/20/20 61/10/21 63/94/22
f 65/20/23 64/95/24 66/96/25
f 37/70/26 40/69/27 39/24/28 38/21/29
f 40/69/30 42/29/31 41/71/32 39/24/33
f 41/71/34 42/29/35 43/72/36
f 42/29/37 45/28/38 44/73/39 43/72/40
f 67/97/41 65/20/42 66/96/43
f 55/3/44 58/88/45 49/99/46
f 36/87/47 54/19/48 38/54/49
f 54/19/50 34/32/51 37/80/52 38/54/53
f 48/82/54 50/11/55 34/47/56 35/83/57
f 50/11/58 48/82/59 51/81/60
f 52/84/61 53/86/62 46/16/63 47/85/64
f 48/82/65 46/16/66 53/86/67 51/81/68
f 9/4/69 58/88/70 57/89/71 8/5/72
f 8/5/73 57/89/74 59/90/75 7/6/76
f 7/6/77 59/90/78 60/91/79 6/7/80
f 6/7/81 60/91/82 56/92/83 5/8/84
f 5/8/85 56/92/86 61/10/87 28/9/88
f 2/40/89 62/93/90 36/68/91 1/2/92
f 15/38/93 63/94/94 62/93/95 2/40/96
f 3/37/97 64/95/98 63/94/99 15/38/100
f 4/36/101 66/96/102 64/95/103 3/37/104
f 20/30/105 40/69/106 37/70/107 19/31/108
f 23/25/109 41/71/110 43/72/111 22/26/112
f 22/26/113 43/72/114 44/73/115 21/27/116
f 24/23/117 39/24/118 41/71/119 23/33/120
f 33/22/121 38/21/122 39/24/123 24/23/124
f 13/34/125 47/74/126 46/57/127 25/35/128
f 25/35/129 46/57/130 48/75/131 14/39/132
f 26/59/133 42/61/134 40/76/135 20/60/136
f 21/62/137 44/77/138 45/58/139 27/63/140
f 27/63/141 45/58/142 42/61/143 26/59/144
f 29/46/145 67/100/146 66/101/147 4/48/148
f 30/45/149 65/49/150 67/100/151 29/46/152
f 28/44/153 61/50/154 65/49/155 30/45/156
f 31/41/157 35/78/158 49/79/159 32/51/160
f 49/79/161 58/98/162 9/52/163 32/51/164
f 19/55/165 37/80/166 34/32/167 18/43/168
f 16/66/169 50/11/170 51/81/171 11/67/172
f 18/64/173 34/47/174 50/11/175 17/65/176
f 17/65/177 50/11/178 16/66/179
f 14/17/180 48/82/181 35/83/182 31/18/183
f 12/14/184 52/84/185 47/85/186 13/15/187
f 10/13/188 53/86/189 52/84/190 12/14/191
f 11/12/192 51/81/193 53/86/194 10/13/195
f 1/53/196 36/87/197 38/54/198 33/56/199
f 34/32/200 54/19/201 55/42/202 35/78/203
f 35/78/204 55/42/205 49/79/206
f 56/92/207 55/3/208 54/1/209
f 70/102/210 88/103/211 90/104/212 95/105/213
f 92/106/214 91/107/215 89/108/216
f 89/108/217 91/107/218 93/109/219 94/110/220
f 94/110/221 90/104/222 89/108/223
f 96/111/224 70/102/225 95/105/226 97/112/227
f 98/113/228 97/112/229 95/105/230 99/114/231
f 99/114/232 100/115/233 98/113/234
f 71/116/235 72/117/236 73/118/237 74/119/238
f 74/119/239 73/118/240 75/120/241 76/121/242
f 75/120/243 77/122/244 76/121/245
f 76/121/246 77/122/247 78/123/248 79/124/249
f 101/125/250 100/115/251 99/114/252
f 89/108/253 83/126/254 92/106/255
f 70/127/256 72/128/257 88/129/258
f 88/129/259 72/128/260 71/130/261 68/131/262
f 82/132/263 69/133/264 68/134/265 84/135/266
f 84/135/267 85/136/268 82/132/269
f 86/137/270 81/138/271 80/139/272 87/140/273
f 82/132/274 85/136/275 87/140/276 80/139/277
f 9/141/278 8/142/279 91/107/280 92/106/281
f 8/142/282 7/143/283 93/109/284 91/107/285
f 7/143/286 6/144/287 94/110/288 93/109/289
f 6/144/290 5/145/291 90/104/292 94/110/293
f 5/145/294 28/146/295 95/105/296 90/104/297
f 2/147/298 1/148/299 70/102/300 96/111/301
f 15/149/302 2/147/303 96/111/304 97/112/305
f 3/150/306 15/149/307 97/112/308 98/113/309
f 4/151/310 3/150/311 98/113/312 100/115/313
f 20/152/314 19/153/315 71/116/316 74/119/317
f 23/154/318 22/155/319 77/122/320 75/120/321
f 22/155/322 21/156/323 78/123/324 77/122/325
f 24/157/326 23/158/327 75/120/328 73/118/329
f 33/159/330 24/157/331 73/118/332 72/117/333
f 13/160/334 25/161/335 80/162/336 81/163/337
f 25/161/338 14/164/339 82/165/340 80/162/341
f 26/166/342 20/167/343 74/168/344 76/169/345
f 21/170/346 27/171/347 79/172/348 78/173/349
f 27/171/350 26/166/351 76/169/352 79/172/353
f 29/174/354 4/175/355 100/176/356 101/177/357
f 30/178/358 29/174/359 101/177/360 99/179/361
f 28/180/362 30/178/363 99/179/364 95/181/365
f 31/182/366 32/183/367 83/184/368 69/185/369
f 83/184/370 32/183/371 9/186/372 92/187/373
f 19/188/374 18/189/375 68/131/376 71/130/377
f 16/190/378 11/191/379 85/136/380 84/135/381
f 18/192/382 17/193/383 84/135/384 68/134/385
f 17/193/386 16/190/387 84/135/388
f 14/194/389 31/195/390 69/133/391 82/132/392
f 12/196/393 13/197/394 81/138/395 86/137/396
f 10/198/397 12/196/398 86/137/399 87/140/400
f 11/199/401 10/198/402 87/140/403 85/136/404
f 1/200/405 33/201/406 72/128/407 70/127/408
f 68/131/409 69/185/410 89/202/411 88/129/412
f 69/185/413 83/184/414 89/202/415
f 90/104/416 88/103/417 89/108/418
