# This file uses centimeters as units for non-parametric coordinates.

mtllib SM_Icon_Darts_01.mtl
g default
v 13.804138 8.432007 -2.000000
v 7.969788 14.266318 -2.000000
v 0.000000 16.401825 -2.000000
v -7.969788 14.266318 -2.000000
v -13.804138 8.432007 -2.000000
v -15.939636 0.462190 -2.000000
v -13.804138 -7.507628 -2.000000
v -7.969788 -13.341939 -2.000000
v 0.000000 -15.477446 -2.000000
v 7.969788 -13.341939 -2.000000
v 13.804138 -7.507628 -2.000000
v 15.939636 0.462190 -2.000000
v -15.378052 8.878518 0.000000
v -8.878540 15.378041 0.000000
v 0.000000 17.757034 0.000000
v 8.878479 15.378041 0.000000
v 15.377991 8.878518 0.000000
v 17.757019 0.000001 0.000000
v 15.377991 -8.878516 0.000000
v 8.878479 -15.378039 0.000000
v 0.000000 -17.757034 0.000000
v -8.878540 -15.378039 0.000000
v -15.378052 -8.878516 0.000000
v -17.757019 0.000001 0.000000
v 8.866028 5.580956 -2.000000
v 5.118713 9.328156 -2.000000
v 0.000000 10.699722 -2.000000
v -5.118774 9.328156 -2.000000
v -8.865967 5.580956 -2.000000
v -10.237549 0.462190 -2.000000
v -8.865967 -4.656577 -2.000000
v -5.118774 -8.403777 -2.000000
v 0.000000 -9.775343 -2.000000
v 5.118713 -8.403777 -2.000000
v 8.866028 -4.656577 -2.000000
v 10.237488 0.462190 -2.000000
v 3.012146 2.151959 -2.000000
v 1.739075 3.474391 -2.000000
v 0.000000 3.940380 -2.000000
v -1.739075 3.474391 -2.000000
v -3.012207 2.201284 -2.000000
v -3.478210 0.462190 -2.000000
v -3.012207 -1.276905 -2.000000
v -1.739075 -2.550011 -2.000000
v 0.000000 -3.016000 -2.000000
v 1.739075 -2.550011 -2.000000
v 3.012146 -1.276905 -2.000000
v 3.478210 0.462190 -2.000000
v 7.716125 11.262934 -4.000000
v 10.962830 8.016260 -4.000000
v 10.956238 14.159651 -4.000000
v 13.859558 11.256323 -4.000000
v 11.838928 17.252211 0.000000
v 16.800232 12.326551 0.000000
v 7.209290 12.335999 0.000000
v 11.848328 7.696956 0.000000
v 8.202576 8.502611 -4.000000
v 12.294861 12.782507 0.000000
v 11.275330 11.575426 -4.000000
v 7.988953 8.759424 -4.000000
v 7.117737 9.908546 0.000000
v 12.058044 14.661133 0.000000
v 11.109558 12.890200 -4.000000
v 8.332336 8.289093 -4.000000
v 9.153870 7.141961 0.000000
v 14.173523 12.545685 0.000000
v 12.590149 11.409685 -4.000000
v 0.403381 1.749963 -2.000000
v -0.374329 2.325172 0.000000
v -0.043884 0.443734 0.000000
v -0.043884 0.443734 -2.000000
v 1.402283 -0.574566 0.000000
v 1.094177 0.687693 -2.000000
v 12.220276 10.015911 -2.000000
v 7.301819 7.161399 -2.000000
v 2.706238 2.507309 -2.000000
v 1.739075 1.348443 -2.000000
v 13.427917 10.828642 0.000000
v 13.804138 8.432007 2.000000
v 7.969788 14.266318 2.000000
v 0.000000 16.401825 2.000000
v -7.969788 14.266318 2.000000
v -13.804138 8.432007 2.000000
v -15.939636 0.462190 2.000000
v -13.804138 -7.507628 2.000000
v -7.969788 -13.341939 2.000000
v 0.000000 -15.477446 2.000000
v 7.969788 -13.341939 2.000000
v 13.804138 -7.507628 2.000000
v 15.939636 0.462190 2.000000
v 8.866028 5.580956 2.000000
v 5.118713 9.328156 2.000000
v 0.000000 10.699722 2.000000
v -5.118774 9.328156 2.000000
v -8.865967 5.580956 2.000000
v -10.237549 0.462190 2.000000
v -8.865967 -4.656577 2.000000
v -5.118774 -8.403777 2.000000
v 0.000000 -9.775343 2.000000
v 5.118713 -8.403777 2.000000
v 8.866028 -4.656577 2.000000
v 10.237488 0.462190 2.000000
v 3.012146 2.151959 2.000000
v 1.739075 3.474391 2.000000
v 0.000000 3.940380 2.000000
v -1.739075 3.474391 2.000000
v -3.012207 2.201284 2.000000
v -3.478210 0.462190 2.000000
v -3.012207 -1.276905 2.000000
v -1.739075 -2.550011 2.000000
v 0.000000 -3.016000 2.000000
v 1.739075 -2.550011 2.000000
v 3.012146 -1.276905 2.000000
v 3.478210 0.462190 2.000000
v 7.716125 11.262934 4.000000
v 10.962830 8.016260 4.000000
v 10.956238 14.159651 4.000000
v 13.859558 11.256323 4.000000
v 8.202576 8.502611 4.000000
v 11.275330 11.575426 4.000000
v 7.988953 8.759424 4.000000
v 11.109558 12.890200 4.000000
v 8.332336 8.289093 4.000000
v 12.590149 11.409685 4.000000
v 0.403381 1.749963 2.000000
v -0.043884 0.443734 2.000000
v 1.094177 0.687693 2.000000
v 12.220276 10.015911 2.000000
v 7.301819 7.161399 2.000000
v 2.706238 2.507309 2.000000
v 1.739075 1.348443 2.000000
vt 0.012950 0.952165
vt 0.011953 0.951168
vt 0.012119 0.951073
vt 0.013045 0.951999
vt 0.014311 0.952530
vt 0.014311 0.952339
vt 0.015673 0.952165
vt 0.015577 0.951999
vt 0.016670 0.951168
vt 0.016504 0.951073
vt 0.017035 0.949807
vt 0.016843 0.949807
vt 0.016670 0.948445
vt 0.016504 0.948541
vt 0.015673 0.947448
vt 0.015577 0.947614
vt 0.014311 0.947083
vt 0.014311 0.947275
vt 0.012950 0.947448
vt 0.013045 0.947614
vt 0.011953 0.948445
vt 0.012119 0.948541
vt 0.011588 0.949807
vt 0.011779 0.949807
vt 0.015124 0.951215
vt 0.015720 0.950620
vt 0.014311 0.951433
vt 0.013498 0.951215
vt 0.012903 0.950620
vt 0.012685 0.949807
vt 0.012903 0.948994
vt 0.013498 0.948398
vt 0.014311 0.948180
vt 0.015124 0.948398
vt 0.015720 0.948994
vt 0.015938 0.949807
vt 0.981840 0.985349
vt 0.983320 0.983869
vt 0.984808 0.986445
vt 0.984417 0.986836
vt 0.985342 0.983327
vt 0.985342 0.986302
vt 0.987364 0.983869
vt 0.985876 0.986445
vt 0.988844 0.985349
vt 0.986267 0.986836
vt 0.989386 0.987370
vt 0.986410 0.987370
vt 0.988844 0.989392
vt 0.986267 0.987905
vt 0.987364 0.990872
vt 0.985876 0.988296
vt 0.985342 0.991414
vt 0.985342 0.988439
vt 0.983320 0.990872
vt 0.984808 0.988296
vt 0.981840 0.989392
vt 0.984417 0.987905
vt 0.981299 0.987370
vt 0.984273 0.987370
vt 0.022110 0.956887
vt 0.022110 0.954184
vt 0.022472 0.955536
vt 0.019769 0.952832
vt 0.019769 0.958239
vt 0.018417 0.957877
vt 0.018417 0.953195
vt 0.017428 0.956887
vt 0.017428 0.954184
vt 0.021120 0.957877
vt 0.021120 0.953195
vt 0.017065 0.955536
vt 0.553110 0.950420
vt 0.546764 0.945110
vt 0.550340 0.944645
vt 0.555270 0.950159
vt 0.553110 0.950420
vt 0.555270 0.950159
vt 0.546764 0.945110
vt 0.550340 0.944645
vt 0.542573 0.984060
vt 0.542573 0.984060
vt 0.552440 0.989610
vt 0.552440 0.989610
vt 0.980617 0.885605
vt 0.980617 0.885605
vt 0.980449 0.884814
vt 0.980449 0.884814
vt 0.552907 0.987178
vt 0.552907 0.987178
vt 0.553412 0.984659
vt 0.553412 0.984659
vt 0.543404 0.980034
vt 0.544054 0.978772
vt 0.543404 0.980034
vt 0.981240 0.884982
vt 0.981240 0.884982
vt 0.550872 0.950702
vt 0.550872 0.950702
vt 0.545342 0.945172
vt 0.988966 0.894720
vt 0.988966 0.894720
vt 0.989025 0.893390
vt 0.990355 0.893331
vt 0.990355 0.893331
vt 0.016253 0.951324
vt 0.982303 0.984886
vt 0.015533 0.950806
vt 0.021872 0.957125
vt 0.984511 0.986742
vt 0.021120 0.956160
vt 0.016371 0.951467
vt 0.022955 0.923625
vt 0.021444 0.925781
vt 0.016750 0.921896
vt 0.018243 0.919745
vt 0.012364 0.915561
vt 0.011441 0.913871
vt 0.012656 0.915145
vt 0.024457 0.924233
vt 0.022596 0.926888
vt 0.981649 0.953236
vt 0.984297 0.949913
vt 0.992076 0.959697
vt 0.991559 0.960340
vt 0.012950 0.952165
vt 0.011953 0.951168
vt 0.012119 0.951073
vt 0.013045 0.951999
vt 0.014311 0.952530
vt 0.014311 0.952339
vt 0.015673 0.952165
vt 0.015577 0.951999
vt 0.016253 0.951324
vt 0.016371 0.951467
vt 0.017035 0.949807
vt 0.016670 0.951168
vt 0.016504 0.951073
vt 0.016843 0.949807
vt 0.016670 0.948445
vt 0.016504 0.948541
vt 0.015673 0.947448
vt 0.015577 0.947614
vt 0.014311 0.947083
vt 0.014311 0.947275
vt 0.012950 0.947448
vt 0.013045 0.947614
vt 0.011953 0.948445
vt 0.012119 0.948541
vt 0.011588 0.949807
vt 0.011779 0.949807
vt 0.022955 0.923625
vt 0.021444 0.925781
vt 0.016750 0.921896
vt 0.018243 0.919745
vt 0.014311 0.951433
vt 0.015124 0.951215
vt 0.013498 0.951215
vt 0.012903 0.950620
vt 0.012685 0.949807
vt 0.012903 0.948994
vt 0.013498 0.948398
vt 0.014311 0.948180
vt 0.015124 0.948398
vt 0.015720 0.948994
vt 0.015938 0.949807
vt 0.015720 0.950620
vt 0.981649 0.953236
vt 0.984297 0.949913
vt 0.992076 0.959697
vt 0.991559 0.960340
vt 0.983320 0.983869
vt 0.985342 0.983327
vt 0.985342 0.986302
vt 0.984808 0.986445
vt 0.987364 0.983869
vt 0.985876 0.986445
vt 0.988844 0.985349
vt 0.986267 0.986836
vt 0.989386 0.987370
vt 0.986410 0.987370
vt 0.988844 0.989392
vt 0.986267 0.987905
vt 0.987364 0.990872
vt 0.985876 0.988296
vt 0.985342 0.991414
vt 0.985342 0.988439
vt 0.983320 0.990872
vt 0.984808 0.988296
vt 0.981840 0.989392
vt 0.984417 0.987905
vt 0.981299 0.987370
vt 0.984273 0.987370
vt 0.981840 0.985349
vt 0.984417 0.986836
vt 0.022110 0.956887
vt 0.022110 0.954184
vt 0.022472 0.955536
vt 0.019769 0.952832
vt 0.019769 0.958239
vt 0.018417 0.957877
vt 0.018417 0.953195
vt 0.017428 0.956887
vt 0.017428 0.954184
vt 0.021120 0.956160
vt 0.021120 0.953195
vt 0.012364 0.915561
vt 0.011441 0.913871
vt 0.012656 0.915145
vt 0.017065 0.955536
vt 0.553110 0.950420
vt 0.546764 0.945110
vt 0.550340 0.944645
vt 0.555270 0.950159
vt 0.553110 0.950420
vt 0.555270 0.950159
vt 0.546764 0.945110
vt 0.550340 0.944645
vt 0.542573 0.984060
vt 0.542573 0.984060
vt 0.552440 0.989610
vt 0.552440 0.989610
vt 0.980617 0.885605
vt 0.980617 0.885605
vt 0.980449 0.884814
vt 0.980449 0.884814
vt 0.552907 0.987178
vt 0.552907 0.987178
vt 0.553412 0.984659
vt 0.553412 0.984659
vt 0.543404 0.980034
vt 0.544054 0.978772
vt 0.543404 0.980034
vt 0.981240 0.884982
vt 0.981240 0.884982
vt 0.550872 0.950702
vt 0.550872 0.950702
vt 0.545342 0.945172
vt 0.988966 0.894720
vt 0.988966 0.894720
vt 0.989025 0.893390
vt 0.990355 0.893331
vt 0.990355 0.893331
vt 0.015533 0.950806
vt 0.984511 0.986742
vt 0.982303 0.984886
vt 0.021120 0.957877
vt 0.021872 0.957125
vt 0.024457 0.924233
vt 0.022596 0.926888
vn -0.575382 0.575383 -0.581266
vn -0.575382 0.575383 -0.581266
vn -0.575382 0.575383 -0.581266
vn -0.575382 0.575383 -0.581266
vn -0.216557 0.808201 -0.547644
vn -0.216557 0.808201 -0.547644
vn -0.216557 0.808201 -0.547644
vn -0.216557 0.808201 -0.547644
vn 0.216558 0.808203 -0.547641
vn 0.216558 0.808203 -0.547641
vn 0.216558 0.808203 -0.547641
vn 0.216558 0.808203 -0.547641
vn 0.575387 0.575389 -0.581254
vn 0.575384 0.575392 -0.581255
vn 0.575384 0.575392 -0.581255
vn 0.575388 0.575389 -0.581254
vn 0.747686 0.200343 -0.633110
vn 0.747686 0.200343 -0.633110
vn 0.747686 0.200343 -0.633110
vn 0.747686 0.200343 -0.633110
vn 0.704668 -0.188816 -0.683953
vn 0.704668 -0.188816 -0.683953
vn 0.704668 -0.188816 -0.683953
vn 0.704668 -0.188816 -0.683953
vn 0.489824 -0.489825 -0.721210
vn 0.489824 -0.489825 -0.721210
vn 0.489824 -0.489825 -0.721210
vn 0.489824 -0.489825 -0.721210
vn 0.174019 -0.649443 -0.740231
vn 0.174019 -0.649443 -0.740231
vn 0.174019 -0.649443 -0.740231
vn 0.174019 -0.649443 -0.740231
vn -0.174018 -0.649442 -0.740232
vn -0.174018 -0.649442 -0.740232
vn -0.174018 -0.649442 -0.740232
vn -0.174018 -0.649442 -0.740232
vn -0.489819 -0.489820 -0.721217
vn -0.489819 -0.489820 -0.721217
vn -0.489819 -0.489820 -0.721217
vn -0.489819 -0.489820 -0.721217
vn -0.704664 -0.188813 -0.683958
vn -0.704664 -0.188813 -0.683958
vn -0.704664 -0.188813 -0.683958
vn -0.704664 -0.188813 -0.683958
vn -0.747681 0.200339 -0.633117
vn -0.747681 0.200339 -0.633117
vn -0.747681 0.200339 -0.633117
vn -0.747681 0.200339 -0.633117
vn 0.000000 0.000000 -1.000000
vn 0.000000 0.000000 -1.000000
vn 0.000000 0.000000 -1.000000
vn 0.000000 0.000000 -1.000000
vn 0.000000 0.000000 -1.000000
vn 0.000000 0.000000 -1.000000
vn 0.000000 0.000000 -1.000000
vn 0.000000 0.000000 -1.000000
vn 0.000000 0.000000 -1.000000
vn 0.000000 0.000000 -1.000000
vn 0.000000 0.000000 -1.000000
vn 0.000000 0.000000 -1.000000
vn 0.000000 0.000000 -1.000000
vn 0.000000 0.000000 -1.000000
vn 0.000000 0.000000 -1.000000
vn 0.000000 0.000000 -1.000000
vn 0.000000 0.000000 -1.000000
vn 0.000000 0.000000 -1.000000
vn 0.000000 0.000000 -1.000000
vn 0.000000 0.000000 -1.000000
vn 0.000000 0.000000 -1.000000
vn 0.000000 0.000000 -1.000000
vn 0.000000 0.000000 -1.000000
vn 0.000000 0.000000 -1.000000
vn 0.000000 0.000000 -1.000000
vn 0.000000 0.000000 -1.000000
vn 0.000000 0.000000 -1.000000
vn 0.000000 0.000000 -1.000000
vn 0.000000 0.000000 -1.000000
vn 0.000000 0.000000 -1.000000
vn 0.000000 0.000000 -1.000000
vn 0.000000 0.000000 -1.000000
vn 0.000000 0.000000 -1.000000
vn 0.000000 0.000000 -1.000000
vn 0.000000 0.000000 -1.000000
vn 0.000000 0.000000 -1.000000
vn 0.000000 0.000000 -1.000000
vn 0.000000 0.000000 -1.000000
vn 0.000000 0.000000 -1.000000
vn 0.000000 0.000000 -1.000000
vn 0.000000 0.000000 -1.000000
vn 0.000000 0.000000 -1.000000
vn 0.000000 0.000000 -1.000000
vn 0.000000 0.000000 -1.000000
vn 0.000000 0.000000 -1.000000
vn 0.000000 0.000000 -1.000000
vn 0.000000 0.000000 -1.000000
vn 0.000000 0.000000 -1.000000
vn 0.000000 0.000000 -1.000000
vn 0.000000 0.000000 -1.000000
vn 0.000000 0.000000 -1.000000
vn 0.000000 0.000000 -1.000000
vn 0.000000 0.000000 -1.000000
vn 0.000000 0.000000 -1.000000
vn 0.000000 0.000000 -1.000000
vn 0.000000 0.000000 -1.000000
vn 0.000000 0.000000 -1.000000
vn 0.000000 0.000000 -1.000000
vn 0.000000 0.000000 -1.000000
vn 0.000000 0.000000 -1.000000
vn 0.000000 0.000000 -1.000000
vn 0.000000 0.000000 -1.000000
vn 0.000000 0.000000 -1.000000
vn 0.000000 0.000000 -1.000000
vn 0.000000 0.000000 -1.000000
vn 0.000000 0.000000 -1.000000
vn 0.000000 0.000000 -1.000000
vn 0.000000 0.000000 -1.000000
vn 0.000000 0.000000 -1.000000
vn 0.000000 0.000000 -1.000000
vn 0.000000 0.000000 -1.000000
vn 0.000000 0.000000 -1.000000
vn 0.000000 0.000000 -1.000000
vn 0.000000 0.000000 -1.000000
vn 0.000000 0.000000 -1.000000
vn 0.000000 0.000000 -1.000000
vn 0.000000 0.000000 -1.000000
vn 0.000000 0.000000 -1.000000
vn 0.000000 0.000000 -1.000000
vn 0.000000 0.000000 -1.000000
vn 0.000000 0.000000 -1.000000
vn 0.000000 0.000000 -1.000000
vn 0.000000 0.000000 -1.000000
vn 0.000000 0.000000 -1.000000
vn 0.000000 0.000000 -1.000000
vn 0.000000 0.000000 -1.000000
vn 0.000000 0.000000 -1.000000
vn 0.000000 0.000000 -1.000000
vn 0.000000 0.000000 -1.000000
vn 0.000000 0.000000 -1.000000
vn 0.000000 0.000000 -1.000000
vn 0.000000 0.000000 -1.000000
vn 0.000000 0.000000 -1.000000
vn 0.000000 0.000000 -1.000000
vn 0.000000 0.000000 -1.000000
vn 0.000000 0.000000 -1.000000
vn 0.000000 0.000000 -1.000000
vn 0.000000 0.000000 -1.000000
vn 0.000000 0.000000 -1.000000
vn 0.000000 0.000000 -1.000000
vn 0.000000 0.000000 -1.000000
vn 0.000000 0.000000 -1.000000
vn 0.000000 0.000000 -1.000000
vn 0.000000 0.000000 -1.000000
vn 0.000000 0.000000 -1.000000
vn 0.000000 0.000000 -1.000000
vn 0.000000 0.000000 -1.000000
vn 0.000000 0.000000 -1.000000
vn 0.000000 0.000000 -1.000000
vn 0.000000 0.000000 -1.000000
vn 0.000000 0.000000 -1.000000
vn 0.000000 0.000000 -1.000000
vn 0.000000 0.000000 -1.000000
vn 0.000000 0.000000 -1.000000
vn 0.000000 0.000000 -1.000000
vn 0.000000 0.000000 -1.000000
vn 0.000000 0.000000 -1.000000
vn 0.000000 0.000000 -1.000000
vn 0.000000 0.000000 -1.000000
vn 0.000000 0.000000 -1.000000
vn 0.000000 0.000000 -1.000000
vn 0.090423 0.945782 -0.311961
vn 0.090423 0.945782 -0.311961
vn 0.090423 0.945782 -0.311961
vn 0.090423 0.945782 -0.311961
vn 0.051943 -0.980260 -0.190769
vn 0.051943 -0.980260 -0.190769
vn 0.051943 -0.980260 -0.190769
vn 0.051943 -0.980260 -0.190769
vn 0.683167 -0.681342 -0.262785
vn 0.683167 -0.681342 -0.262785
vn 0.683167 -0.681342 -0.262785
vn 0.683167 -0.681342 -0.262785
vn -0.667764 0.672620 -0.318863
vn -0.667764 0.672620 -0.318863
vn -0.667764 0.672620 -0.318863
vn -0.667764 0.672620 -0.318863
vn -0.980005 0.035915 -0.195705
vn -0.980005 0.035915 -0.195705
vn -0.980005 0.035915 -0.195705
vn -0.980005 0.035915 -0.195705
vn 0.952726 0.120109 -0.279083
vn 0.952726 0.120109 -0.279083
vn 0.952726 0.120109 -0.279083
vn 0.952726 0.120109 -0.279083
vn 0.000000 0.000000 -1.000000
vn 0.000000 0.000000 -1.000000
vn 0.000000 0.000000 -1.000000
vn 0.000000 0.000000 -1.000000
vn -0.986475 -0.036265 -0.159853
vn -0.986475 -0.036265 -0.159853
vn -0.986474 -0.036265 -0.159853
vn -0.986474 -0.036265 -0.159853
vn 0.956953 0.092320 -0.275169
vn 0.956953 0.092320 -0.275169
vn 0.956953 0.092320 -0.275169
vn 0.956953 0.092320 -0.275169
vn 0.000000 0.000000 -1.000000
vn 0.000000 0.000000 -1.000000
vn 0.000000 0.000000 -1.000000
vn 0.000000 0.000000 -1.000000
vn -0.276389 -0.922401 -0.269788
vn -0.276389 -0.922401 -0.269788
vn -0.276389 -0.922401 -0.269788
vn -0.276389 -0.922401 -0.269788
vn 0.118723 0.941814 -0.314471
vn 0.118723 0.941814 -0.314471
vn 0.118723 0.941814 -0.314471
vn 0.118723 0.941814 -0.314471
vn 0.000000 0.000000 -1.000000
vn 0.000000 0.000000 -1.000000
vn 0.000000 0.000000 -1.000000
vn 0.000000 0.000000 -1.000000
vn -0.671150 0.642848 -0.369193
vn -0.671150 0.642848 -0.369193
vn -0.671150 0.642848 -0.369193
vn -0.671150 0.642848 -0.369193
vn -0.282304 0.042199 -0.958396
vn -0.282304 0.042199 -0.958396
vn -0.282304 0.042199 -0.958396
vn -0.282304 0.042199 -0.958396
vn 0.632832 -0.669957 -0.388177
vn 0.632832 -0.669957 -0.388177
vn 0.632832 -0.669957 -0.388177
vn 0.632832 -0.669957 -0.388177
vn 0.006077 -0.253110 -0.967418
vn 0.006077 -0.253110 -0.967418
vn 0.006077 -0.253110 -0.967418
vn 0.006077 -0.253110 -0.967418
vn 0.000000 0.000000 -1.000000
vn 0.000000 0.000000 -1.000000
vn 0.000000 0.000000 -1.000000
vn 0.000000 0.000000 -1.000000
vn 0.000000 0.000000 -1.000000
vn 0.000000 0.000000 -1.000000
vn 0.000000 0.000000 -1.000000
vn 0.000000 0.000000 -1.000000
vn 0.000000 0.000000 -1.000000
vn 0.000000 0.000000 -1.000000
vn 0.000000 0.000000 -1.000000
vn 0.000000 0.000000 -1.000000
vn 0.000000 0.000000 -1.000000
vn 0.000000 0.000000 -1.000000
vn 0.000000 0.000000 -1.000000
vn 0.000000 0.000000 -1.000000
vn 0.000000 0.000000 -1.000000
vn 0.000000 0.000000 -1.000000
vn 0.575397 0.575382 -0.581252
vn 0.575397 0.575382 -0.581252
vn 0.575387 0.575389 -0.581254
vn 0.575388 0.575389 -0.581254
vn -0.575382 0.575383 0.581266
vn -0.575382 0.575383 0.581266
vn -0.575382 0.575383 0.581266
vn -0.575382 0.575383 0.581266
vn -0.216557 0.808201 0.547644
vn -0.216557 0.808201 0.547644
vn -0.216557 0.808201 0.547644
vn -0.216557 0.808201 0.547644
vn 0.216558 0.808203 0.547641
vn 0.216558 0.808203 0.547641
vn 0.216558 0.808203 0.547641
vn 0.216558 0.808203 0.547641
vn 0.575387 0.575389 0.581254
vn 0.575388 0.575389 0.581254
vn 0.575384 0.575392 0.581255
vn 0.575384 0.575392 0.581255
vn 0.747686 0.200343 0.633110
vn 0.747686 0.200343 0.633110
vn 0.747686 0.200343 0.633110
vn 0.747686 0.200343 0.633110
vn 0.704668 -0.188816 0.683953
vn 0.704668 -0.188816 0.683953
vn 0.704668 -0.188816 0.683953
vn 0.704668 -0.188816 0.683953
vn 0.489824 -0.489825 0.721210
vn 0.489824 -0.489825 0.721210
vn 0.489824 -0.489825 0.721210
vn 0.489824 -0.489825 0.721210
vn 0.174019 -0.649443 0.740231
vn 0.174019 -0.649443 0.740231
vn 0.174019 -0.649443 0.740231
vn 0.174019 -0.649443 0.740231
vn -0.174018 -0.649442 0.740232
vn -0.174018 -0.649442 0.740232
vn -0.174018 -0.649442 0.740232
vn -0.174018 -0.649442 0.740232
vn -0.489819 -0.489820 0.721217
vn -0.489819 -0.489820 0.721217
vn -0.489819 -0.489820 0.721217
vn -0.489819 -0.489820 0.721217
vn -0.704664 -0.188813 0.683958
vn -0.704664 -0.188813 0.683958
vn -0.704664 -0.188813 0.683958
vn -0.704664 -0.188813 0.683958
vn -0.747681 0.200339 0.633117
vn -0.747681 0.200339 0.633117
vn -0.747681 0.200339 0.633117
vn -0.747681 0.200339 0.633117
vn 0.000000 0.000000 1.000000
vn 0.000000 0.000000 1.000000
vn 0.000000 0.000000 1.000000
vn 0.000000 0.000000 1.000000
vn 0.000000 0.000000 1.000000
vn 0.000000 0.000000 1.000000
vn 0.000000 0.000000 1.000000
vn 0.000000 0.000000 1.000000
vn 0.000000 0.000000 1.000000
vn 0.000000 0.000000 1.000000
vn 0.000000 0.000000 1.000000
vn 0.000000 0.000000 1.000000
vn 0.000000 0.000000 1.000000
vn 0.000000 0.000000 1.000000
vn 0.000000 0.000000 1.000000
vn 0.000000 0.000000 1.000000
vn 0.000000 0.000000 1.000000
vn 0.000000 0.000000 1.000000
vn 0.000000 0.000000 1.000000
vn 0.000000 0.000000 1.000000
vn 0.000000 0.000000 1.000000
vn 0.000000 0.000000 1.000000
vn 0.000000 0.000000 1.000000
vn 0.000000 0.000000 1.000000
vn 0.000000 0.000000 1.000000
vn 0.000000 0.000000 1.000000
vn 0.000000 0.000000 1.000000
vn 0.000000 0.000000 1.000000
vn 0.000000 0.000000 1.000000
vn 0.000000 0.000000 1.000000
vn 0.000000 0.000000 1.000000
vn 0.000000 0.000000 1.000000
vn 0.000000 0.000000 1.000000
vn 0.000000 0.000000 1.000000
vn 0.000000 0.000000 1.000000
vn 0.000000 0.000000 1.000000
vn 0.000000 0.000000 1.000000
vn 0.000000 0.000000 1.000000
vn 0.000000 0.000000 1.000000
vn 0.000000 0.000000 1.000000
vn 0.000000 0.000000 1.000000
vn 0.000000 0.000000 1.000000
vn 0.000000 0.000000 1.000000
vn 0.000000 0.000000 1.000000
vn 0.000000 0.000000 1.000000
vn 0.000000 0.000000 1.000000
vn 0.000000 0.000000 1.000000
vn 0.000000 0.000000 1.000000
vn 0.000000 0.000000 1.000000
vn 0.000000 0.000000 1.000000
vn 0.000000 0.000000 1.000000
vn 0.000000 0.000000 1.000000
vn 0.000000 0.000000 1.000000
vn 0.000000 0.000000 1.000000
vn 0.000000 0.000000 1.000000
vn 0.000000 0.000000 1.000000
vn 0.000000 0.000000 1.000000
vn 0.000000 0.000000 1.000000
vn 0.000000 0.000000 1.000000
vn 0.000000 0.000000 1.000000
vn 0.000000 0.000000 1.000000
vn 0.000000 0.000000 1.000000
vn 0.000000 0.000000 1.000000
vn 0.000000 0.000000 1.000000
vn 0.000000 0.000000 1.000000
vn 0.000000 0.000000 1.000000
vn 0.000000 0.000000 1.000000
vn 0.000000 0.000000 1.000000
vn 0.000000 0.000000 1.000000
vn 0.000000 0.000000 1.000000
vn 0.000000 0.000000 1.000000
vn 0.000000 0.000000 1.000000
vn 0.000000 0.000000 1.000000
vn 0.000000 0.000000 1.000000
vn 0.000000 0.000000 1.000000
vn 0.000000 0.000000 1.000000
vn 0.000000 0.000000 1.000000
vn 0.000000 0.000000 1.000000
vn 0.000000 0.000000 1.000000
vn 0.000000 0.000000 1.000000
vn 0.000000 0.000000 1.000000
vn 0.000000 0.000000 1.000000
vn 0.000000 0.000000 1.000000
vn 0.000000 0.000000 1.000000
vn 0.000000 0.000000 1.000000
vn 0.000000 0.000000 1.000000
vn 0.000000 0.000000 1.000000
vn 0.000000 0.000000 1.000000
vn 0.000000 0.000000 1.000000
vn 0.000000 0.000000 1.000000
vn 0.000000 0.000000 1.000000
vn 0.000000 0.000000 1.000000
vn 0.000000 0.000000 1.000000
vn 0.000000 0.000000 1.000000
vn 0.000000 0.000000 1.000000
vn 0.000000 0.000000 1.000000
vn 0.000000 0.000000 1.000000
vn 0.000000 0.000000 1.000000
vn 0.000000 0.000000 1.000000
vn 0.000000 0.000000 1.000000
vn 0.000000 0.000000 1.000000
vn 0.000000 0.000000 1.000000
vn 0.000000 0.000000 1.000000
vn 0.000000 0.000000 1.000000
vn 0.000000 0.000000 1.000000
vn 0.000000 0.000000 1.000000
vn 0.000000 0.000000 1.000000
vn 0.000000 0.000000 1.000000
vn 0.000000 0.000000 1.000000
vn 0.000000 0.000000 1.000000
vn 0.000000 0.000000 1.000000
vn 0.000000 0.000000 1.000000
vn 0.000000 0.000000 1.000000
vn 0.000000 0.000000 1.000000
vn 0.000000 0.000000 1.000000
vn 0.000000 0.000000 1.000000
vn 0.000000 0.000000 1.000000
vn 0.000000 0.000000 1.000000
vn 0.000000 0.000000 1.000000
vn 0.000000 0.000000 1.000000
vn 0.000000 0.000000 1.000000
vn 0.090423 0.945782 0.311961
vn 0.090423 0.945782 0.311961
vn 0.090423 0.945782 0.311961
vn 0.090423 0.945782 0.311961
vn 0.051943 -0.980260 0.190769
vn 0.051943 -0.980260 0.190769
vn 0.051943 -0.980260 0.190769
vn 0.051943 -0.980260 0.190769
vn 0.683167 -0.681342 0.262785
vn 0.683167 -0.681342 0.262785
vn 0.683167 -0.681342 0.262785
vn 0.683167 -0.681342 0.262785
vn -0.667764 0.672620 0.318863
vn -0.667764 0.672620 0.318863
vn -0.667764 0.672620 0.318863
vn -0.667764 0.672620 0.318863
vn -0.980005 0.035915 0.195705
vn -0.980005 0.035915 0.195705
vn -0.980005 0.035915 0.195705
vn -0.980005 0.035915 0.195705
vn 0.952726 0.120109 0.279083
vn 0.952726 0.120109 0.279083
vn 0.952726 0.120109 0.279083
vn 0.952726 0.120109 0.279083
vn 0.000000 0.000000 1.000000
vn 0.000000 0.000000 1.000000
vn 0.000000 0.000000 1.000000
vn 0.000000 0.000000 1.000000
vn -0.986475 -0.036265 0.159853
vn -0.986474 -0.036265 0.159853
vn -0.986474 -0.036265 0.159853
vn -0.986475 -0.036265 0.159853
vn 0.956953 0.092320 0.275169
vn 0.956953 0.092320 0.275169
vn 0.956953 0.092320 0.275169
vn 0.956953 0.092320 0.275169
vn 0.000000 0.000000 1.000000
vn 0.000000 0.000000 1.000000
vn 0.000000 0.000000 1.000000
vn 0.000000 0.000000 1.000000
vn -0.276389 -0.922401 0.269788
vn -0.276389 -0.922401 0.269788
vn -0.276389 -0.922401 0.269788
vn -0.276389 -0.922401 0.269788
vn 0.118723 0.941814 0.314471
vn 0.118723 0.941814 0.314471
vn 0.118723 0.941814 0.314471
vn 0.118723 0.941814 0.314471
vn 0.000000 0.000000 1.000000
vn 0.000000 0.000000 1.000000
vn 0.000000 0.000000 1.000000
vn 0.000000 0.000000 1.000000
vn -0.671150 0.642848 0.369193
vn -0.671150 0.642848 0.369193
vn -0.671150 0.642848 0.369193
vn -0.671150 0.642848 0.369193
vn -0.282304 0.042199 0.958396
vn -0.282304 0.042199 0.958396
vn -0.282304 0.042199 0.958396
vn -0.282304 0.042199 0.958396
vn 0.632832 -0.669957 0.388177
vn 0.632832 -0.669957 0.388177
vn 0.632832 -0.669957 0.388177
vn 0.632832 -0.669957 0.388177
vn 0.006077 -0.253110 0.967418
vn 0.006077 -0.253110 0.967418
vn 0.006077 -0.253110 0.967418
vn 0.006077 -0.253110 0.967418
vn 0.000000 0.000000 1.000000
vn 0.000000 0.000000 1.000000
vn 0.000000 0.000000 1.000000
vn 0.000000 0.000000 1.000000
vn 0.000000 0.000000 1.000000
vn 0.000000 0.000000 1.000000
vn 0.000000 0.000000 1.000000
vn 0.000000 0.000000 1.000000
vn 0.000000 0.000000 1.000000
vn 0.000000 0.000000 1.000000
vn 0.000000 0.000000 1.000000
vn 0.000000 0.000000 1.000000
vn 0.000000 0.000000 1.000000
vn 0.000000 0.000000 1.000000
vn 0.000000 0.000000 1.000000
vn 0.000000 0.000000 1.000000
vn 0.000000 0.000000 1.000000
vn 0.000000 0.000000 1.000000
vn 0.575397 0.575382 0.581252
vn 0.575388 0.575389 0.581254
vn 0.575387 0.575389 0.581254
vn 0.575397 0.575382 0.581252
s off
g SM_Icon_Darts_01
usemtl SM_Icon_Darts_01SG
f 14/1/1 4/4/2 5/3/3 13/2/4
f 15/5/5 3/6/6 4/4/7 14/1/8
f 16/7/9 2/8/10 3/6/11 15/5/12
f 74/106/13 2/8/14 16/7/15 78/112/16
f 18/11/17 12/12/18 1/10/19 17/9/20
f 19/13/21 11/14/22 12/12/23 18/11/24
f 20/15/25 10/16/26 11/14/27 19/13/28
f 21/17/29 9/18/30 10/16/31 20/15/32
f 22/19/33 8/20/34 9/18/35 21/17/36
f 23/21/37 7/22/38 8/20/39 22/19/40
f 24/23/41 6/24/42 7/22/43 23/21/44
f 13/2/45 5/3/46 6/24/47 24/23/48
f 1/113/49 25/116/50 75/115/51 74/114/52
f 2/8/53 26/25/54 27/27/55 3/6/56
f 3/6/57 27/27/58 28/28/59 4/4/60
f 4/4/61 28/28/62 29/29/63 5/3/64
f 5/3/65 29/29/66 30/30/67 6/24/68
f 6/24/69 30/30/70 31/31/71 7/22/72
f 7/22/73 31/31/74 32/32/75 8/20/76
f 8/20/77 32/32/78 33/33/79 9/18/80
f 9/18/81 33/33/82 34/34/83 10/16/84
f 10/16/85 34/34/86 35/35/87 11/14/88
f 11/14/89 35/35/90 36/36/91 12/12/92
f 12/12/93 36/36/94 25/26/95 1/10/96
f 25/122/97 37/125/98 76/124/99 75/123/100
f 26/38/101 38/39/102 39/42/103 27/41/104
f 27/41/105 39/42/106 40/44/107 28/43/108
f 28/43/109 40/44/110 41/46/111 29/45/112
f 29/45/113 41/46/114 42/48/115 30/47/116
f 30/47/117 42/48/118 43/50/119 31/49/120
f 31/49/121 43/50/122 44/52/123 32/51/124
f 32/51/125 44/52/126 45/54/127 33/53/128
f 33/53/129 45/54/130 46/56/131 34/55/132
f 34/55/133 46/56/134 47/58/135 35/57/136
f 35/57/137 47/58/138 48/60/139 36/59/140
f 36/59/141 48/60/142 37/40/143 25/37/144
f 37/61/145 48/63/146 47/62/147
f 45/64/148 44/67/149 40/66/150 39/65/151
f 44/67/152 43/69/153 41/68/154 40/66/155
f 77/111/156 46/71/157 45/64/158 39/65/159
f 76/117/160 37/119/161 77/118/162
f 43/69/163 42/72/164 41/68/165
f 67/73/166 52/76/167 50/75/168 64/74/169
f 66/77/170 54/78/171 52/76/172 67/73/173
f 64/74/174 50/75/175 56/80/176 65/79/177
f 50/75/178 52/76/179 54/78/180 56/80/181
f 55/81/182 53/84/183 51/83/184 49/82/185
f 68/85/186 71/88/187 70/87/188 69/86/189
f 62/89/190 58/92/191 59/91/192 63/90/193
f 63/90/194 59/91/195 57/94/196 60/93/197
f 55/81/198 49/82/199 60/93/200 61/95/201
f 51/83/202 53/84/203 62/89/204 63/90/205
f 49/82/206 51/83/207 63/90/208 60/93/209
f 71/88/210 73/97/211 72/96/212 70/87/213
f 58/98/214 66/77/215 67/73/216 59/99/217
f 59/99/218 67/73/219 64/74/220 57/100/221
f 60/101/222 68/85/223 69/86/224 61/102/225
f 57/103/226 71/88/227 68/85/228 60/101/229
f 65/104/230 72/96/231 73/97/232 64/105/233
f 64/105/234 73/97/235 71/88/236 57/103/237
f 75/108/238 26/25/239 2/8/240 74/106/241
f 76/110/242 38/39/243 26/38/244 75/107/245
f 38/70/246 76/109/247 77/111/248
f 37/61/249 47/62/250 46/71/251 77/111/252
f 38/70/253 77/111/254 39/65/255
f 17/120/256 1/113/257 74/114/258 78/121/259
f 14/126/260 13/127/261 83/128/262 82/129/263
f 15/130/264 14/126/265 82/129/266 81/131/267
f 16/132/268 15/130/269 81/131/270 80/133/271
f 128/134/272 78/135/273 16/132/274 80/133/275
f 18/136/276 17/137/277 79/138/278 90/139/279
f 19/140/280 18/136/281 90/139/282 89/141/283
f 20/142/284 19/140/285 89/141/286 88/143/287
f 21/144/288 20/142/289 88/143/290 87/145/291
f 22/146/292 21/144/293 87/145/294 86/147/295
f 23/148/296 22/146/297 86/147/298 85/149/299
f 24/150/300 23/148/301 85/149/302 84/151/303
f 13/127/304 24/150/305 84/151/306 83/128/307
f 79/152/308 128/153/309 129/154/310 91/155/311
f 80/133/312 81/131/313 93/156/314 92/157/315
f 81/131/316 82/129/317 94/158/318 93/156/319
f 82/129/320 83/128/321 95/159/322 94/158/323
f 83/128/324 84/151/325 96/160/326 95/159/327
f 84/151/328 85/149/329 97/161/330 96/160/331
f 85/149/332 86/147/333 98/162/334 97/161/335
f 86/147/336 87/145/337 99/163/338 98/162/339
f 87/145/340 88/143/341 100/164/342 99/163/343
f 88/143/344 89/141/345 101/165/346 100/164/347
f 89/141/348 90/139/349 102/166/350 101/165/351
f 90/139/352 79/138/353 91/167/354 102/166/355
f 91/168/356 129/169/357 130/170/358 103/171/359
f 92/172/360 93/173/361 105/174/362 104/175/363
f 93/173/364 94/176/365 106/177/366 105/174/367
f 94/176/368 95/178/369 107/179/370 106/177/371
f 95/178/372 96/180/373 108/181/374 107/179/375
f 96/180/376 97/182/377 109/183/378 108/181/379
f 97/182/380 98/184/381 110/185/382 109/183/383
f 98/184/384 99/186/385 111/187/386 110/185/387
f 99/186/388 100/188/389 112/189/390 111/187/391
f 100/188/392 101/190/393 113/191/394 112/189/395
f 101/190/396 102/192/397 114/193/398 113/191/399
f 102/192/400 91/194/401 103/195/402 114/193/403
f 103/196/404 113/197/405 114/198/406
f 111/199/407 105/200/408 106/201/409 110/202/410
f 110/202/411 106/201/412 107/203/413 109/204/414
f 131/205/415 105/200/416 111/199/417 112/206/418
f 130/207/419 131/208/420 103/209/421
f 109/204/422 107/203/423 108/210/424
f 124/211/425 123/212/426 116/213/427 118/214/428
f 66/215/429 124/211/430 118/214/431 54/216/432
f 123/212/433 65/217/434 56/218/435 116/213/436
f 116/213/437 56/218/438 54/216/439 118/214/440
f 55/219/441 115/220/442 117/221/443 53/222/444
f 125/223/445 69/224/446 70/225/447 126/226/448
f 62/227/449 122/228/450 120/229/451 58/230/452
f 122/228/453 121/231/454 119/232/455 120/229/456
f 55/219/457 61/233/458 121/231/459 115/220/460
f 117/221/461 122/228/462 62/227/463 53/222/464
f 115/220/465 121/231/466 122/228/467 117/221/468
f 126/226/469 70/225/470 72/234/471 127/235/472
f 58/236/473 120/237/474 124/211/475 66/215/476
f 120/237/477 119/238/478 123/212/479 124/211/480
f 121/239/481 61/240/482 69/224/483 125/223/484
f 119/241/485 121/239/486 125/223/487 126/226/488
f 65/242/489 123/243/490 127/235/491 72/234/492
f 123/243/493 119/241/494 126/226/495 127/235/496
f 129/244/497 128/134/498 80/133/499 92/157/500
f 130/245/501 129/246/502 92/172/503 104/175/504
f 104/247/505 131/205/506 130/248/507
f 103/196/508 131/205/509 112/206/510 113/197/511
f 104/247/512 105/200/513 131/205/514
f 17/249/515 78/250/516 128/153/517 79/152/518
